<svg width="20" height="21" viewBox="0 0 20 21" fill="none" xmlns="http://www.w3.org/2000/svg">
<path fill-rule="evenodd" clip-rule="evenodd" d="M10.9769 14.7784C10.7318 15.0215 10.7302 15.4172 10.9732 15.6623C11.2163 15.9074 11.612 15.909 11.8571 15.6659L16.8988 10.6655C17.0171 10.5481 17.0837 10.3884 17.0837 10.2217C17.0837 10.2167 17.0836 10.2117 17.0835 10.2067C17.0835 10.205 17.0835 10.2033 17.0835 10.2017C17.0835 9.98013 16.9682 9.78553 16.7944 9.67453L11.8571 4.77838C11.612 4.53533 11.2163 4.53698 10.9732 4.78208C10.7301 5.02718 10.7318 5.42291 10.9769 5.66596L14.9205 9.57666H3.9585C3.61332 9.57666 3.3335 9.85648 3.3335 10.2017C3.3335 10.5468 3.61332 10.8267 3.9585 10.8267H14.9612L10.9769 14.7784Z" fill="#3A67ED"/>
</svg>
