<svg width="22" height="25" viewBox="0 0 22 25" fill="none" xmlns="http://www.w3.org/2000/svg">
<path d="M11.0064 24.6875C9.77142 24.6875 8.66016 24.0462 8.03391 22.9712C7.77391 22.5237 7.92516 21.95 8.37266 21.69C8.81891 21.4288 9.39392 21.58 9.65392 22.0288C10.2264 23.01 11.7852 23.0125 12.3589 22.0288C12.6202 21.5813 13.1952 21.4312 13.6414 21.6912C14.0889 21.9512 14.2402 22.5262 13.9789 22.9737C13.3514 24.0462 12.2414 24.6875 11.0064 24.6875ZM21.8452 20.4062C22.0014 20.0812 21.9577 19.6962 21.7327 19.415C21.7102 19.3862 19.4389 16.5075 19.4389 13.1263V10C19.4389 9.4825 19.0189 9.0625 18.5014 9.0625C17.9839 9.0625 17.5639 9.4825 17.5639 10V13.125C17.5639 15.545 18.4989 17.6975 19.2702 19.0625H2.73391C3.50516 17.6975 4.44016 15.545 4.44016 13.125V8.75C4.44016 5.13125 7.38391 2.1875 11.0027 2.1875C11.5202 2.1875 11.9402 1.7675 11.9402 1.25C11.9402 0.7325 11.5202 0.3125 11.0027 0.3125C6.35016 0.3125 2.56516 4.0975 2.56516 8.75V13.125C2.56516 16.4862 0.292664 19.3862 0.270164 19.415C0.0464142 19.6962 0.00266741 20.0825 0.160167 20.4062C0.316417 20.73 0.643921 20.9375 1.00392 20.9375H21.0039C21.3602 20.9375 21.6889 20.7312 21.8452 20.4062ZM20.6877 3.75C20.6877 1.855 19.1464 0.3125 17.2502 0.3125C15.3539 0.3125 13.8127 1.855 13.8127 3.75C13.8127 5.645 15.3539 7.1875 17.2502 7.1875C19.1464 7.1875 20.6877 5.645 20.6877 3.75ZM18.8127 3.75C18.8127 4.61125 18.1114 5.3125 17.2502 5.3125C16.3889 5.3125 15.6877 4.61125 15.6877 3.75C15.6877 2.88875 16.3889 2.1875 17.2502 2.1875C18.1114 2.1875 18.8127 2.88875 18.8127 3.75Z" fill="black"/>
</svg>
