<svg width="30" height="31" viewBox="0 0 30 31" fill="none" xmlns="http://www.w3.org/2000/svg">
<path d="M15.0063 27.6875C13.7713 27.6875 12.66 27.0462 12.0338 25.9712C11.7738 25.5237 11.925 24.95 12.3725 24.69C12.8188 24.4288 13.3938 24.58 13.6538 25.0288C14.2263 26.01 15.7851 26.0125 16.3588 25.0288C16.6201 24.5813 17.1951 24.4312 17.6413 24.6912C18.0888 24.9512 18.24 25.5262 17.9788 25.9737C17.3513 27.0462 16.2413 27.6875 15.0063 27.6875ZM25.845 23.4062C26.0013 23.0812 25.9575 22.6962 25.7325 22.415C25.71 22.3862 23.4388 19.5075 23.4388 16.1263V13C23.4388 12.4825 23.0188 12.0625 22.5013 12.0625C21.9838 12.0625 21.5638 12.4825 21.5638 13V16.125C21.5638 18.545 22.4988 20.6975 23.27 22.0625H6.73378C7.50503 20.6975 8.44004 18.545 8.44004 16.125V11.75C8.44004 8.13125 11.3838 5.1875 15.0025 5.1875C15.52 5.1875 15.94 4.7675 15.94 4.25C15.94 3.7325 15.52 3.3125 15.0025 3.3125C10.35 3.3125 6.56504 7.0975 6.56504 11.75V16.125C6.56504 19.4862 4.29254 22.3862 4.27004 22.415C4.04629 22.6962 4.00255 23.0825 4.16005 23.4062C4.3163 23.73 4.6438 23.9375 5.0038 23.9375H25.0038C25.3601 23.9375 25.6888 23.7312 25.845 23.4062ZM24.6875 6.75C24.6875 4.855 23.1463 3.3125 21.25 3.3125C19.3538 3.3125 17.8125 4.855 17.8125 6.75C17.8125 8.645 19.3538 10.1875 21.25 10.1875C23.1463 10.1875 24.6875 8.645 24.6875 6.75ZM22.8125 6.75C22.8125 7.61125 22.1113 8.3125 21.25 8.3125C20.3888 8.3125 19.6875 7.61125 19.6875 6.75C19.6875 5.88875 20.3888 5.1875 21.25 5.1875C22.1113 5.1875 22.8125 5.88875 22.8125 6.75Z" fill="white"/>
</svg>
