<svg width="24" height="17" viewBox="0 0 24 17" fill="none" xmlns="http://www.w3.org/2000/svg">
<path d="M22.5 2.375H1.5C1.017 2.375 0.625 1.983 0.625 1.5C0.625 1.017 1.017 0.625 1.5 0.625H22.5C22.983 0.625 23.375 1.017 23.375 1.5C23.375 1.983 22.983 2.375 22.5 2.375ZM23.375 8.5C23.375 8.017 22.983 7.625 22.5 7.625H1.5C1.017 7.625 0.625 8.017 0.625 8.5C0.625 8.983 1.017 9.375 1.5 9.375H22.5C22.983 9.375 23.375 8.983 23.375 8.5ZM23.375 15.5C23.375 15.017 22.983 14.625 22.5 14.625H12C11.517 14.625 11.125 15.017 11.125 15.5C11.125 15.983 11.517 16.375 12 16.375H22.5C22.983 16.375 23.375 15.983 23.375 15.5Z" fill="black"/>
</svg>
