<svg width="28" height="29" viewBox="0 0 28 29" fill="none" xmlns="http://www.w3.org/2000/svg">
<path d="M24.5 8.375H3.5C3.017 8.375 2.625 7.983 2.625 7.5C2.625 7.017 3.017 6.625 3.5 6.625H24.5C24.983 6.625 25.375 7.017 25.375 7.5C25.375 7.983 24.983 8.375 24.5 8.375ZM25.375 14.5C25.375 14.017 24.983 13.625 24.5 13.625H3.5C3.017 13.625 2.625 14.017 2.625 14.5C2.625 14.983 3.017 15.375 3.5 15.375H24.5C24.983 15.375 25.375 14.983 25.375 14.5ZM25.375 21.5C25.375 21.017 24.983 20.625 24.5 20.625H14C13.517 20.625 13.125 21.017 13.125 21.5C13.125 21.983 13.517 22.375 14 22.375H24.5C24.983 22.375 25.375 21.983 25.375 21.5Z" fill="white"/>
</svg>
