<svg width="26" height="30" viewBox="0 0 26 30" fill="none" xmlns="http://www.w3.org/2000/svg">
<path fill-rule="evenodd" clip-rule="evenodd" d="M5.07437 0C2.83223 0 0.976562 1.85302 0.976562 4.09515V25.9049C0.976562 28.147 2.8322 30 5.07437 30H21.4257C23.6678 30 25.5235 28.147 25.5235 25.9049V10.9088H18.7044C16.4623 10.9088 14.6146 9.0612 14.6146 6.81903V0H5.07437ZM17.3412 0.804118V6.81903C17.3412 7.59789 17.9256 8.1823 18.7044 8.1823H24.7194L17.3412 0.804118ZM7.6598 13.6354C7.70681 13.633 7.75391 13.633 7.80092 13.6354H13.2567C13.6186 13.6354 13.9657 13.7792 14.2216 14.0351C14.4775 14.291 14.6213 14.6381 14.6213 15C14.6213 15.3619 14.4775 15.709 14.2216 15.9649C13.9657 16.2208 13.6186 16.3646 13.2567 16.3646H7.80092C7.43908 16.3832 7.08468 16.2573 6.81564 16.0146C6.5466 15.772 6.38495 15.4324 6.36624 15.0705C6.34753 14.7087 6.47329 14.3543 6.71587 14.0851C6.95844 13.816 7.29797 13.6542 7.6598 13.6354ZM7.6598 19.0912C7.70681 19.0887 7.75391 19.0887 7.80092 19.0912H18.6991C18.8807 19.0871 19.0613 19.1193 19.2303 19.186C19.3992 19.2527 19.5532 19.3524 19.6831 19.4794C19.8129 19.6064 19.9161 19.7581 19.9866 19.9255C20.057 20.093 20.0933 20.2728 20.0933 20.4544C20.0933 20.6361 20.057 20.8159 19.9866 20.9833C19.9161 21.1507 19.8129 21.3024 19.6831 21.4294C19.5532 21.5564 19.3992 21.6562 19.2303 21.7228C19.0613 21.7895 18.8807 21.8218 18.6991 21.8177H7.80092C7.44419 21.8282 7.09752 21.6987 6.83513 21.4568C6.57274 21.2149 6.41549 20.8798 6.39704 20.5234C6.3786 20.167 6.50042 19.8176 6.73644 19.5499C6.97245 19.2822 7.30389 19.1175 7.6598 19.0912Z" fill="#9497FF"/>
</svg>
