<svg width="18" height="18" viewBox="0 0 18 18" fill="none" xmlns="http://www.w3.org/2000/svg">
<mask id="path-1-inside-1_3083_729" fill="white">
<path fill-rule="evenodd" clip-rule="evenodd" d="M14.6339 13.7197C17.0764 10.5813 16.8553 6.0416 13.9706 3.15687C10.8464 0.0326723 5.78105 0.0326725 2.65685 3.15687C-0.46734 6.28106 -0.46734 11.3464 2.65685 14.4706C5.54158 17.3553 10.0812 17.5764 13.2197 15.1339L15.3848 17.299C15.7753 17.6895 16.4085 17.6895 16.799 17.299C17.1895 16.9085 17.1895 16.2753 16.799 15.8848L14.6339 13.7197Z"/>
</mask>
<path d="M14.6339 13.7197L13.0556 12.4914L11.9709 13.8851L13.2197 15.1339L14.6339 13.7197ZM13.2197 15.1339L14.6339 13.7197L13.3851 12.4709L11.9913 13.5556L13.2197 15.1339ZM15.3848 17.299L13.9705 18.7132L15.3848 17.299ZM16.799 15.8848L15.3848 17.299L16.799 15.8848ZM12.5563 4.57108C14.7188 6.73356 14.8862 10.1392 13.0556 12.4914L16.2122 14.9481C19.2666 11.0234 18.9918 5.34963 15.3848 1.74265L12.5563 4.57108ZM4.07107 4.57108C6.41421 2.22793 10.2132 2.22793 12.5563 4.57108L15.3848 1.74265C11.4795 -2.16259 5.14788 -2.16259 1.24264 1.74265L4.07107 4.57108ZM4.07107 13.0564C1.72792 10.7132 1.72792 6.91423 4.07107 4.57108L1.24264 1.74265C-2.6626 5.6479 -2.6626 11.9795 1.24264 15.8848L4.07107 13.0564ZM11.9913 13.5556C9.63914 15.3862 6.23354 15.2188 4.07107 13.0564L1.24264 15.8848C4.84961 19.4918 10.5234 19.7666 14.448 16.7123L11.9913 13.5556ZM16.799 15.8848L14.6339 13.7197L11.8055 16.5481L13.9705 18.7132L16.799 15.8848ZM15.3848 15.8848C15.7753 15.4943 16.4085 15.4943 16.799 15.8848L13.9705 18.7132C15.1421 19.8848 17.0416 19.8848 18.2132 18.7132L15.3848 15.8848ZM15.3848 17.299C14.9942 16.9085 14.9942 16.2753 15.3848 15.8848L18.2132 18.7132C19.3848 17.5416 19.3848 15.6421 18.2132 14.4706L15.3848 17.299ZM13.2197 15.1339L15.3848 17.299L18.2132 14.4706L16.0481 12.3055L13.2197 15.1339Z" fill="black" mask="url(#path-1-inside-1_3083_729)"/>
</svg>
