<svg width="30" height="31" viewBox="0 0 30 31" fill="none" xmlns="http://www.w3.org/2000/svg">
<path d="M28.4375 15.5C28.4375 8.09 22.41 2.0625 15 2.0625C7.59 2.0625 1.5625 8.09 1.5625 15.5C1.5625 19.8375 3.63624 23.6901 6.83624 26.1488C6.84124 26.1538 6.84879 26.1563 6.85379 26.1613C9.11754 27.8951 11.9362 28.9375 15.0012 28.9375C18.0662 28.9375 20.8851 27.8951 23.1488 26.1613C23.1538 26.1563 23.1612 26.1538 23.1662 26.1488C26.3637 23.6901 28.4375 19.8375 28.4375 15.5ZM3.4375 15.5C3.4375 9.12375 8.62375 3.9375 15 3.9375C21.3762 3.9375 26.5625 9.12375 26.5625 15.5C26.5625 18.6537 25.29 21.5151 23.235 23.6026C22.6738 21.2263 20.8775 19.0249 17.1375 19.0249H12.8625C9.12255 19.0249 7.32498 21.2263 6.76498 23.6026C4.70998 21.5151 3.4375 18.6537 3.4375 15.5ZM8.44879 25.0175C8.52129 23.735 9.10755 20.8999 12.8625 20.8999H17.1375C20.8925 20.8999 21.4787 23.735 21.5512 25.0175C19.6875 26.305 17.4312 27.0625 15 27.0625C12.5688 27.0625 10.3125 26.3038 8.44879 25.0175ZM15.0101 17.6875C17.5938 17.6875 19.6976 15.585 19.6976 13C19.6976 10.415 17.5938 8.3125 15.0101 8.3125C12.4263 8.3125 10.3226 10.415 10.3226 13C10.3226 15.585 12.4251 17.6875 15.0101 17.6875ZM15.0101 10.1875C16.5601 10.1875 17.8226 11.4487 17.8226 13C17.8226 14.5513 16.5601 15.8125 15.0101 15.8125C13.4601 15.8125 12.1976 14.5513 12.1976 13C12.1976 11.4487 13.4601 10.1875 15.0101 10.1875Z" fill="black"/>
</svg>
