<svg width="20" height="20" viewBox="0 0 20 20" fill="none" xmlns="http://www.w3.org/2000/svg">
<path d="M3.33758 18.1242C2.95675 18.1242 2.5869 17.9741 2.3069 17.6941C1.9119 17.3 1.77607 16.7275 1.95107 16.2008L2.65175 14.1167C2.73342 13.8608 2.72602 13.6041 2.63018 13.4016C2.13685 12.3408 1.87843 11.1659 1.87843 9.99919C1.87843 5.52002 5.52264 1.875 10.0018 1.875C14.4818 1.875 18.126 5.51919 18.126 9.99919C18.126 14.4792 14.4818 18.1233 10.0018 18.1233C8.83597 18.1233 7.66101 17.8642 6.60601 17.3734C6.39935 17.2742 6.14101 17.2675 5.87685 17.3517L3.80267 18.0483C3.6485 18.0992 3.49175 18.1242 3.33758 18.1242ZM10.001 3.125C6.21099 3.125 3.12762 6.20835 3.12762 9.99919C3.12762 10.985 3.34679 11.9775 3.76096 12.8692C3.99096 13.3533 4.02094 13.9358 3.8401 14.505L3.13677 16.5975C3.10177 16.7017 3.15508 16.7758 3.19008 16.8108C3.22508 16.8458 3.30015 16.8992 3.40431 16.8642L5.48602 16.165C6.06352 15.9808 6.64763 16.0092 7.13763 16.2433C8.02263 16.655 9.01516 16.8742 10.001 16.8742C13.7918 16.8742 16.8752 13.7908 16.8752 10C16.8752 6.20917 13.7918 3.125 10.001 3.125ZM13.9585 8.33333C13.9585 7.98833 13.6785 7.70833 13.3335 7.70833H6.66684C6.32184 7.70833 6.04184 7.98833 6.04184 8.33333C6.04184 8.67833 6.32184 8.95833 6.66684 8.95833H13.3335C13.6785 8.95833 13.9585 8.67833 13.9585 8.33333ZM11.4585 11.6667C11.4585 11.3217 11.1785 11.0417 10.8335 11.0417H6.66684C6.32184 11.0417 6.04184 11.3217 6.04184 11.6667C6.04184 12.0117 6.32184 12.2917 6.66684 12.2917H10.8335C11.1785 12.2917 11.4585 12.0117 11.4585 11.6667Z" fill="#A2A5AE"/>
</svg>
