<svg width="18" height="18" viewBox="0 0 18 18" fill="none" xmlns="http://www.w3.org/2000/svg">
<path d="M16.6469 7.00664C16.2752 6.48998 15.4994 5.875 13.9202 5.875H11.2902V3.8025C11.2902 2.75584 10.7701 1.78417 9.89931 1.20251C9.40181 0.870839 8.7902 0.785815 8.22186 0.969148C7.65186 1.15248 7.20513 1.57832 6.98763 2.16249L5.21436 7.54167H2.75098C1.71764 7.54167 0.875977 8.3825 0.875977 9.41667V15.25C0.875977 16.2842 1.71764 17.125 2.75098 17.125H12.2544C14.3344 17.125 14.8435 16.1141 15.2193 14.9883L16.8852 9.98831C17.2744 8.81831 17.1894 7.75914 16.6469 7.00664ZM2.12516 15.25V9.41667C2.12516 9.07167 2.406 8.79167 2.75016 8.79167H4.41683V15.875H2.75016C2.406 15.875 2.12516 15.595 2.12516 15.25ZM15.6977 9.5925L14.0318 14.5925C13.736 15.4817 13.5502 15.875 12.2535 15.875H5.66683V8.79167C5.93683 8.79167 6.17521 8.61832 6.25938 8.36249L8.1652 2.57834C8.24103 2.37751 8.40018 2.22501 8.60435 2.15918C8.80852 2.09251 9.02681 2.12416 9.20514 2.24249C9.72764 2.59083 10.0393 3.17417 10.0393 3.8025V6.5C10.0393 6.845 10.3193 7.125 10.6643 7.125H13.9193C14.4993 7.125 15.2676 7.23082 15.6326 7.73749C15.9293 8.14916 15.9543 8.82583 15.6977 9.5925Z" fill="#A2A5AE"/>
</svg>
