<svg width="35" height="34" viewBox="0 0 35 34" fill="none" xmlns="http://www.w3.org/2000/svg">
<path fill-rule="evenodd" clip-rule="evenodd" d="M11.2734 0C17.0064 0 21.7037 4.40499 22.1829 10.0139C15.8599 10.5219 10.8132 15.5848 10.3278 21.9141H0.25V10.957C0.25 4.90556 5.22197 0 11.2734 0ZM12.2695 22.9102C12.2695 16.8684 17.1849 11.9531 23.2266 11.9531C29.2683 11.9531 34.25 16.8684 34.25 22.9102V34H23.2266C17.1849 34 12.2695 28.9519 12.2695 22.9102ZM18.2461 23.9062H20.2383V21.9141H18.2461V23.9062ZM26.2148 23.9062H28.207V21.9141H26.2148V23.9062ZM22.2305 23.9062H24.2227V21.9141H22.2305V23.9062Z" fill="#F98395"/>
</svg>
