<svg width="35" height="34" viewBox="0 0 35 34" fill="none" xmlns="http://www.w3.org/2000/svg">
<path fill-rule="evenodd" clip-rule="evenodd" d="M15.4318 1.20955e-07C15.0869 -0.000136267 14.7519 0.115074 14.4801 0.327297C14.2082 0.539521 14.0152 0.836565 13.9316 1.17116L13.2374 3.95117C12.7179 4.13283 12.2134 4.34601 11.7191 4.58807L9.25604 3.10902C8.96063 2.93207 8.61458 2.85884 8.27281 2.90094C7.93105 2.94305 7.61312 3.09808 7.3695 3.34144L4.09144 6.6195C3.84808 6.86312 3.69305 7.18105 3.65094 7.52281C3.60884 7.86458 3.68207 8.21063 3.85902 8.50604L5.33505 10.9661C5.09617 11.4602 4.88601 11.9652 4.70721 12.4844L1.92116 13.1816C1.58657 13.2652 1.28952 13.4582 1.0773 13.7301C0.865074 14.0019 0.749864 14.3369 0.75 14.6818V19.3182C0.749864 19.6631 0.865074 19.9981 1.0773 20.2699C1.28952 20.5418 1.58657 20.7348 1.92116 20.8184L4.70117 21.5126C4.88301 22.0319 5.096 22.5366 5.33807 23.0309L3.85902 25.494C3.68207 25.7894 3.60884 26.1354 3.65094 26.4772C3.69305 26.819 3.84808 27.1369 4.09144 27.3805L7.3695 30.6616C7.61333 30.9056 7.93182 31.0611 8.27424 31.1032C8.61667 31.1454 8.96334 31.0717 9.25906 30.894L11.7191 29.418C12.2124 29.6563 12.7164 29.8642 13.2344 30.0428L13.9316 32.8288C14.0152 33.1634 14.2082 33.4605 14.4801 33.6727C14.7519 33.8849 15.0869 34.0001 15.4318 34H20.0682C20.4131 34.0001 20.7481 33.8849 21.0199 33.6727C21.2918 33.4605 21.4848 33.1634 21.5684 32.8288L22.2626 30.0488C22.7821 29.8672 23.2866 29.6539 23.7809 29.4119L26.244 30.891C26.5394 31.0679 26.8854 31.1412 27.2272 31.0991C27.569 31.0569 27.8869 30.9019 28.1305 30.6586L31.4086 27.3805C31.6519 27.1369 31.8069 26.819 31.8491 26.4772C31.8912 26.1354 31.8179 25.7894 31.641 25.494L30.1649 23.0339C30.4038 22.5392 30.614 22.0348 30.7928 21.5156L33.5788 20.8184C33.9134 20.7348 34.2105 20.5418 34.4227 20.2699C34.6349 19.9981 34.7501 19.6631 34.75 19.3182V14.6818C34.7501 14.3369 34.6349 14.0019 34.4227 13.7301C34.2105 13.4582 33.9134 13.2652 33.5788 13.1816L30.7988 12.4874C30.617 11.9681 30.404 11.4634 30.1619 10.9691L31.641 8.50604C31.8179 8.21063 31.8912 7.86458 31.8491 7.52281C31.8069 7.18105 31.6519 6.86312 31.4086 6.6195L28.1305 3.34144C27.8869 3.09808 27.569 2.94305 27.2272 2.90094C26.8854 2.85884 26.5394 2.93207 26.244 3.10902L23.7839 4.58505C23.2895 4.34615 22.7848 4.13589 22.2656 3.95721L21.5684 1.17116C21.4848 0.836565 21.2918 0.539521 21.0199 0.327297C20.7481 0.115074 20.4131 -0.000136232 20.0682 1.20955e-07H15.4318ZM17.75 10.8182C19.3895 10.8182 20.9619 11.4695 22.1212 12.6288C23.2805 13.7881 23.9318 15.3605 23.9318 17C23.9318 18.6395 23.2805 20.2119 22.1212 21.3712C20.9619 22.5305 19.3895 23.1818 17.75 23.1818C16.1105 23.1818 14.5381 22.5305 13.3788 21.3712C12.2195 20.2119 11.5682 18.6395 11.5682 17C11.5682 15.3605 12.2195 13.7881 13.3788 12.6288C14.5381 11.4695 16.1105 10.8182 17.75 10.8182Z" fill="#67D4B2"/>
</svg>
