<svg width="35" height="32" viewBox="0 0 35 32" fill="none" xmlns="http://www.w3.org/2000/svg">
<path d="M30.1466 25.0887C29.8154 22.6369 28.8055 20.3264 27.2309 18.4181C25.6563 16.5097 23.5796 15.0795 21.2353 14.2887C22.2745 13.6265 23.1118 12.6916 23.6562 11.5861C24.0712 11.5289 24.4894 11.4975 24.9083 11.4922C30.1257 11.4922 34.7692 16.407 34.7692 22C34.7692 23.3148 33.0475 24.4418 30.1466 25.0887ZM17.7501 31.0157C11.4892 31.0157 6.76226 29.2522 6.76226 26.9252C6.76226 20.7374 11.8962 15.3009 17.7501 15.3009C23.604 15.3009 28.7379 20.7374 28.7379 26.9252C28.7275 29.2522 24.011 31.0157 17.7501 31.0157ZM5.3327 25.0783C2.44226 24.4418 0.730957 23.3148 0.730957 22C0.730957 16.407 5.34313 11.4922 10.5918 11.4922C11.0034 11.4992 11.4144 11.5271 11.8231 11.5757C12.3641 12.6862 13.202 13.6253 14.244 14.2887C11.9011 15.0787 9.82543 16.5074 8.25094 18.4137C6.67644 20.3201 5.66572 22.6283 5.3327 25.0783ZM10.5501 1.00525C11.3048 1.00563 12.047 1.19723 12.7076 1.56218C13.3681 1.92713 13.9255 2.45352 14.3275 3.0922C13.3616 3.67639 12.5629 4.50018 12.009 5.48374C11.4551 6.46731 11.1646 7.57729 11.1657 8.70611C11.1685 9.09096 11.2034 9.47491 11.2701 9.85394C11.0461 9.89246 10.819 9.90992 10.5918 9.90611C9.44605 9.85068 8.36553 9.3565 7.57424 8.526C6.78294 7.6955 6.34155 6.59236 6.34155 5.44524C6.34155 4.29813 6.78294 3.19499 7.57424 2.36449C8.36553 1.53399 9.44605 1.03981 10.5918 0.984375L10.5501 1.00525ZM24.8666 1.00525C26.0124 1.06068 27.0929 1.55486 27.8842 2.38536C28.6755 3.21586 29.1169 4.319 29.1169 5.46611C29.1169 6.61323 28.6755 7.71637 27.8842 8.54687C27.0929 9.37737 26.0124 9.87155 24.8666 9.92698C24.6325 9.93077 24.3985 9.91331 24.1675 9.87481C24.2342 9.49578 24.2691 9.11183 24.2718 8.72698C24.2703 7.59222 23.9755 6.47712 23.416 5.48986C22.8566 4.50259 22.0515 3.67667 21.0788 3.0922C21.4869 2.44738 22.0528 1.91732 22.7229 1.55214C23.3931 1.18696 24.1452 0.998728 24.9083 1.00525H24.8666ZM22.7483 8.70611C22.7483 9.69674 22.4546 10.6651 21.9042 11.4888C21.3539 12.3125 20.5716 12.9544 19.6564 13.3335C18.7412 13.7126 17.7341 13.8118 16.7625 13.6186C15.7909 13.4253 14.8984 12.9483 14.198 12.2478C13.4975 11.5473 13.0205 10.6549 12.8272 9.68326C12.6339 8.71167 12.7331 7.70459 13.1122 6.78937C13.4913 5.87415 14.1333 5.0919 14.957 4.54153C15.7806 3.99117 16.749 3.69742 17.7397 3.69742C19.068 3.69742 20.342 4.22512 21.2813 5.16443C22.2206 6.10374 22.7483 7.37773 22.7483 8.70611Z" fill="#F96A0C"/>
</svg>
