<svg width="28" height="27" viewBox="0 0 28 27" fill="none" xmlns="http://www.w3.org/2000/svg">
<path d="M27.4375 13.5C27.4375 6.09 21.41 0.0625 14 0.0625C6.59 0.0625 0.5625 6.09 0.5625 13.5C0.5625 17.8375 2.63624 21.6901 5.83624 24.1488C5.84124 24.1538 5.84879 24.1563 5.85379 24.1613C8.11754 25.8951 10.9362 26.9375 14.0012 26.9375C17.0662 26.9375 19.8851 25.8951 22.1488 24.1613C22.1538 24.1563 22.1612 24.1538 22.1662 24.1488C25.3637 21.6901 27.4375 17.8375 27.4375 13.5ZM2.4375 13.5C2.4375 7.12375 7.62375 1.9375 14 1.9375C20.3762 1.9375 25.5625 7.12375 25.5625 13.5C25.5625 16.6537 24.29 19.5151 22.235 21.6026C21.6738 19.2263 19.8775 17.0249 16.1375 17.0249H11.8625C8.12255 17.0249 6.32498 19.2263 5.76498 21.6026C3.70998 19.5151 2.4375 16.6537 2.4375 13.5ZM7.44879 23.0175C7.52129 21.735 8.10755 18.8999 11.8625 18.8999H16.1375C19.8925 18.8999 20.4787 21.735 20.5512 23.0175C18.6875 24.305 16.4312 25.0625 14 25.0625C11.5688 25.0625 9.31254 24.3038 7.44879 23.0175ZM14.0101 15.6875C16.5938 15.6875 18.6976 13.585 18.6976 11C18.6976 8.415 16.5938 6.3125 14.0101 6.3125C11.4263 6.3125 9.32257 8.415 9.32257 11C9.32257 13.585 11.4251 15.6875 14.0101 15.6875ZM14.0101 8.1875C15.5601 8.1875 16.8226 9.44875 16.8226 11C16.8226 12.5513 15.5601 13.8125 14.0101 13.8125C12.4601 13.8125 11.1976 12.5513 11.1976 11C11.1976 9.44875 12.4601 8.1875 14.0101 8.1875Z" fill="white"/>
</svg>
